<svg xmlns="http://www.w3.org/2000/svg" width="459.788" height="440.031" viewBox="0 0 459.788 440.031">
  <g id="killer-whale" transform="translate(0 -11)">
    <g id="Group_16" data-name="Group 16" transform="translate(12.874 11)">
      <path id="Path_26" data-name="Path 26" d="M221.478,11C126.041,11,44.81,71.77,14.336,156.72L27.622,335.141a219.968,219.968,0,0,0,193.855,115.89c121.511,0,220.016-98.5,220.016-220.016S342.989,11,221.478,11Z" transform="translate(-14.336 -11)" fill="#4b0317"/>
    </g>
    <g id="Group_17" data-name="Group 17" transform="translate(43.623 44.218)">
      <circle id="Ellipse_13" data-name="Ellipse 13" cx="189.378" cy="189.378" r="189.378" transform="translate(0 0)" fill="rgba(248,184,255,0.99)"/>
    </g>
    <g id="Group_29" data-name="Group 29" transform="translate(0 33.819)">
      <g id="Group_18" data-name="Group 18" transform="translate(54.484 0)">
        <path id="Path_27" data-name="Path 27" d="M178.961,158.815c-29.784-1.346-68.776-90.807-84.825-111.443s-31.1-9.841-23.883,13.346S77.686,127.3,60.671,155.8v20.629h118.29Z" transform="translate(-60.671 -36.411)" fill="#642a3a"/>
      </g>
      <g id="Group_19" data-name="Group 19" transform="translate(54.484 0.922)">
        <path id="Path_28" data-name="Path 28" d="M73.995,37.437c-5.244,2.725-7.479,11.388-3.742,23.385,7.222,23.187,7.433,66.581-9.582,95.082v20.629H93.487C109.9,119.266,85.395,60.31,73.995,37.437Z" transform="translate(-60.671 -37.437)" fill="#4b0317"/>
      </g>
      <g id="Group_20" data-name="Group 20" transform="translate(0 118.477)">
        <path id="Path_29" data-name="Path 29" d="M439.69,234.767A84.627,84.627,0,0,0,407.262,217.7c-34-9.51-224.5-65.25-394.394-44.946A219.416,219.416,0,0,0,0,247.061a222.39,222.39,0,0,0,1.317,24.207l.014,0L45.609,336.1s30.573,15.978,81.32,15.978v0A1051.8,1051.8,0,0,0,261.837,336.1l176.129-58.82,15-5.011c.009,0,6.825-.916,6.825-5.343C459.788,260.037,453.349,246.45,439.69,234.767Z" transform="translate(0 -168.341)" fill="#642a3a"/>
      </g>
      <g id="Group_21" data-name="Group 21" transform="translate(0 118.475)">
        <path id="Path_30" data-name="Path 30" d="M1.332,271.266,45.609,336.1s30.543,15.96,81.242,15.977a1035.368,1035.368,0,0,0,117.1-12.86C119.7,305.958,83.647,217.923,91.65,168.34a662.9,662.9,0,0,0-78.776,4.424A219.623,219.623,0,0,0,0,247.061a222.174,222.174,0,0,0,1.319,24.207Z" transform="translate(0 -168.34)" fill="#4b0317"/>
      </g>
      <g id="Group_22" data-name="Group 22" transform="translate(261.834 209.47)">
        <path id="Path_31" data-name="Path 31" d="M291.567,346.429C377.8,330.7,441.077,309.036,454.956,303.7,481.782,293.38,482.7,282.6,482.7,282.6c-9.172,0-51.206-10.126-75.358-12.783C384.4,267.3,326.76,295.8,291.567,346.429Z" transform="translate(-291.567 -269.667)" fill="#f2e1f9"/>
      </g>
      <g id="Group_23" data-name="Group 23" transform="translate(1.331 221.38)">
        <path id="Path_32" data-name="Path 32" d="M60.127,316.974c-5.756-14.9-27.769-34.788-58.645-34.023a218.546,218.546,0,0,0,24.829,79.92,820.639,820.639,0,0,0,100.767.887C96.823,364.762,67.921,337.145,60.127,316.974Z" transform="translate(-1.482 -282.93)" fill="#f2e1f9"/>
      </g>
      <g id="Group_24" data-name="Group 24" transform="translate(194.486 247.851)">
        <path id="Path_33" data-name="Path 33" d="M287.8,312.407c-26.9,0-47.69,4.363-58.7,23.622s-25.68,65.117,10.088,80.1,73.676-17.732,90.185-44.94S350.475,312.407,287.8,312.407Z" transform="translate(-216.571 -312.407)" fill="#642a3a"/>
      </g>
      <g id="Group_25" data-name="Group 25" transform="translate(329.516 176.696)">
        <ellipse id="Ellipse_14" data-name="Ellipse 14" cx="9.172" cy="29.96" rx="9.172" ry="29.96" transform="translate(0 18.251) rotate(-84.147)" fill="#f2e1f9"/>
      </g>
      <g id="Group_26" data-name="Group 26" transform="translate(382.997 186.639)">
        <circle id="Ellipse_15" data-name="Ellipse 15" cx="8.98" cy="8.98" r="8.98" fill="#18161a"/>
      </g>
      <g id="Group_27" data-name="Group 27" transform="translate(391.977 186.639)">
        <circle id="Ellipse_16" data-name="Ellipse 16" cx="4.49" cy="4.49" r="4.49" fill="#fff"/>
      </g>
      <g id="Group_28" data-name="Group 28" transform="translate(194.486 247.868)">
        <path id="Path_34" data-name="Path 34" d="M285.048,312.426c-25.565.3-45.313,5.009-55.94,23.605-11.005,19.26-25.68,65.117,10.088,80.1a48.056,48.056,0,0,0,14.078,3.541C240.1,371.568,271.436,328.334,285.048,312.426Z" transform="translate(-216.571 -312.426)" fill="#4b0317"/>
      </g>
    </g>
  </g>
</svg>
