<svg xmlns="http://www.w3.org/2000/svg" width="1892.021" height="540.66" viewBox="0 0 1892.021 540.66">
  <g id="killer-whale-2" transform="translate(-19.979 -163)">
    <g id="killer-whale" transform="translate(19.979 152)">
      <g id="Group_16" data-name="Group 16" transform="translate(15.818 11)">
        <path id="Path_26" data-name="Path 26" d="M268.848,11C151.587,11,51.778,85.667,14.336,190.045L30.661,409.268A270.272,270.272,0,0,0,268.848,551.66c149.3,0,270.33-121.031,270.33-270.33S418.148,11,268.848,11Z" transform="translate(-14.336 -11)" fill="#4b0317"/>
      </g>
      <g id="Group_17" data-name="Group 17" transform="translate(53.599 51.815)">
        <circle id="Ellipse_13" data-name="Ellipse 13" cx="232.686" cy="232.686" r="232.686" transform="translate(0 0)" fill="rgba(248,184,255,0.99)"/>
      </g>
      <g id="Group_29" data-name="Group 29" transform="translate(0 39.038)">
        <g id="Group_18" data-name="Group 18" transform="translate(66.944 0)">
          <path id="Path_27" data-name="Path 27" d="M206.013,186.807c-36.6-1.654-84.5-111.574-104.224-136.928s-38.218-12.092-29.345,16.4S81.577,148.084,60.671,183.1v25.347H206.013Z" transform="translate(-60.671 -36.411)" fill="#642a3a"/>
        </g>
        <g id="Group_19" data-name="Group 19" transform="translate(66.944 1.133)">
          <path id="Path_28" data-name="Path 28" d="M77.042,37.437c-6.443,3.348-9.189,13.992-4.6,28.733C81.318,94.66,81.577,147.978,60.671,183v25.347h40.32C121.163,137.979,91.048,65.54,77.042,37.437Z" transform="translate(-60.671 -37.437)" fill="#4b0317"/>
        </g>
        <g id="Group_20" data-name="Group 20" transform="translate(0 145.571)">
          <path id="Path_29" data-name="Path 29" d="M540.241,249.958A103.98,103.98,0,0,0,500.4,228.993c-41.774-11.685-275.836-80.172-484.586-55.225A269.594,269.594,0,0,0,0,265.063a273.248,273.248,0,0,0,1.619,29.743l.018,0,54.4,79.656s37.565,19.631,99.916,19.631v.005a1292.33,1292.33,0,0,0,165.761-19.631l216.408-72.272,18.427-6.157c.011,0,8.386-1.125,8.386-6.565C564.935,281.007,557.023,264.313,540.241,249.958Z" transform="translate(0 -168.341)" fill="#642a3a"/>
        </g>
        <g id="Group_21" data-name="Group 21" transform="translate(0 145.569)">
          <path id="Path_30" data-name="Path 30" d="M1.636,294.8l54.4,79.656s37.527,19.609,99.821,19.63a1272.138,1272.138,0,0,0,143.875-15.8C147.077,337.43,102.776,229.262,112.609,168.34a814.491,814.491,0,0,0-96.791,5.436A269.847,269.847,0,0,0,0,265.063a272.982,272.982,0,0,0,1.621,29.743Z" transform="translate(0 -168.34)" fill="#4b0317"/>
        </g>
        <g id="Group_22" data-name="Group 22" transform="translate(321.712 257.372)">
          <path id="Path_31" data-name="Path 31" d="M291.567,363.984c105.953-19.327,183.7-45.944,200.754-52.5,32.96-12.678,34.088-25.918,34.088-25.918-11.269,0-62.917-12.442-92.591-15.706C405.628,266.758,334.808,301.779,291.567,363.984Z" transform="translate(-291.567 -269.667)" fill="#f2e1f9"/>
        </g>
        <g id="Group_23" data-name="Group 23" transform="translate(1.635 272.007)">
          <path id="Path_32" data-name="Path 32" d="M73.539,324.759c-7.073-18.307-34.119-42.743-72.057-41.8a268.524,268.524,0,0,0,30.508,98.2,1008.3,1008.3,0,0,0,123.811,1.09C118.627,383.476,83.115,349.544,73.539,324.759Z" transform="translate(-1.482 -282.93)" fill="#f2e1f9"/>
        </g>
        <g id="Group_24" data-name="Group 24" transform="translate(238.962 304.531)">
          <path id="Path_33" data-name="Path 33" d="M304.1,312.407c-33.054,0-58.6,5.361-72.12,29.025s-31.552,80.008,12.4,98.412S334.9,418.058,355.18,384.627,381.1,312.407,304.1,312.407Z" transform="translate(-216.571 -312.407)" fill="#642a3a"/>
        </g>
        <g id="Group_25" data-name="Group 25" transform="translate(404.872 217.104)">
          <ellipse id="Ellipse_14" data-name="Ellipse 14" cx="11.269" cy="36.811" rx="11.269" ry="36.811" transform="translate(0 22.425) rotate(-84.147)" fill="#f2e1f9"/>
        </g>
        <g id="Group_26" data-name="Group 26" transform="translate(470.583 229.321)">
          <circle id="Ellipse_15" data-name="Ellipse 15" cx="11.034" cy="11.034" r="11.034" fill="#18161a"/>
        </g>
        <g id="Group_27" data-name="Group 27" transform="translate(481.617 229.321)">
          <circle id="Ellipse_16" data-name="Ellipse 16" cx="5.517" cy="5.517" r="5.517" fill="#fff"/>
        </g>
        <g id="Group_28" data-name="Group 28" transform="translate(238.962 304.552)">
          <path id="Path_34" data-name="Path 34" d="M300.707,312.426c-31.411.372-55.676,6.155-68.732,29-13.522,23.664-31.552,80.008,12.4,98.413a59.047,59.047,0,0,0,17.3,4.351C245.486,385.093,283.983,331.972,300.707,312.426Z" transform="translate(-216.571 -312.426)" fill="#4b0317"/>
        </g>
      </g>
    </g>
    <text id="Samuel_Simon_Bassey" data-name="Samuel Simon Bassey" transform="translate(621 480)" fill="#4b0317" font-size="128" font-family="Lora" font-weight="500"><tspan x="0" y="0">Samuel Simon Bassey</tspan></text>
  </g>
</svg>
